HIERARCHY
ROOT Hips
{
  OFFSET 32.3736 103.876 -133.35
  CHANNELS 6 Xposition Yposition Zposition Zrotation Xrotation Yrotation
  JOINT RightUpLeg
  {
    OFFSET -8.9458 -8.66707 0.101652
    CHANNELS 3 Zrotation Xrotation Yrotation
    JOINT RightLeg
    {
      OFFSET 0 -44.4227 1.3727
      CHANNELS 3 Zrotation Xrotation Yrotation
      JOINT RightFoot
      {
        OFFSET 0.253549 -42.0924 -1.46059
        CHANNELS 3 Zrotation Xrotation Yrotation
        JOINT RightToes
        {
          OFFSET 0.04 -4.41509 8.4991
          CHANNELS 3 Zrotation Xrotation Yrotation
          End Site
          {
            OFFSET -0.08 -0.137448 9.77979
          }
        }
      }
    }
  }
  JOINT Spine
  {
    OFFSET 0 11.8905 0
    CHANNELS 3 Zrotation Xrotation Yrotation
    JOINT Spine1
    {
      OFFSET 0 25.6574 0.127663
      CHANNELS 3 Zrotation Xrotation Yrotation
      JOINT HEad
      {
        OFFSET 0 8.73416 0.011341
        CHANNELS 3 Zrotation Xrotation Yrotation
        End Site
        {
          OFFSET -0.29 12.7742 2.51395
        }
      }
      JOINT LeftShoulder1
      {
        OFFSET 8.99 -0.362252 -0.22
        CHANNELS 3 Zrotation Xrotation Yrotation
        JOINT LeftArm
        {
          OFFSET 10.2827 -0.00338 0.322123
          CHANNELS 3 Zrotation Xrotation Yrotation
          JOINT LeftForeArm
          {
            OFFSET 32.7669 0.099144 -1.42434
            CHANNELS 3 Zrotation Xrotation Yrotation
            JOINT LeftHand
            {
              OFFSET 27.5643 0.085362 1.02216
              CHANNELS 3 Zrotation Xrotation Yrotation
              End Site
              {
                OFFSET 16.7443 -0.6 1.50291
              }
            }
          }
        }
      }
      JOINT RightShoulder
      {
        OFFSET -8.99 -0.362252 -0.22
        CHANNELS 3 Zrotation Xrotation Yrotation
        JOINT RightArm
        {
          OFFSET -10.2827 -0.00338 0.322123
          CHANNELS 3 Zrotation Xrotation Yrotation
          JOINT RightForeArm
          {
            OFFSET -32.8971 0.099144 -1.42434
            CHANNELS 3 Zrotation Xrotation Yrotation
            JOINT RightHand
            {
              OFFSET -27.4921 0.085362 1.02216
              CHANNELS 3 Zrotation Xrotation Yrotation
              End Site
              {
                OFFSET -16.6312 -0.6 1.50291
              }
            }
          }
        }
      }
    }
  }
  JOINT LeftUpLeg
  {
    OFFSET 8.9458 -8.66707 0.101652
    CHANNELS 3 Zrotation Xrotation Yrotation
    JOINT LeftLeg
    {
      OFFSET 0 -44.4227 1.3727
      CHANNELS 3 Zrotation Xrotation Yrotation
      JOINT LeftFoot
      {
        OFFSET -0.253549 -42.0924 -1.46059
        CHANNELS 3 Zrotation Xrotation Yrotation
        JOINT LeftToes
        {
          OFFSET -0.04 -4.41509 8.4991
          CHANNELS 3 Zrotation Xrotation Yrotation
          End Site
          {
            OFFSET 0.08 -0.047448 9.77979
          }
        }
      }
    }
  }
}
MOTION
Frames:	14
Frame Time:	0.0166667
32.3736 103.876 -133.35 -2.98675 0.00881428 6.1618 2.57521 -15.9867 -0.956228 6.87907 20.5595 0.361538 -0.0846959 -7.02649 -0.169 0.0462048 0.000533964 0.662642 0.552991 2.88819 -0.399347 -0.475253 -7.79734 -0.228884 4.18296 2.60641 -1.47425 -4.96962e-016 7.95139e-016 -1.59028e-015 -85.1129 -26.5422 -2.86032 -24.5645 10.9801 4.23693 0.368473 9.90896 -0.00117927 3.78166 0.135444 -2.35407 77.9183 -30.3966 -8.63098 20.9986 13.5401 7.94169 -0.369625 9.91382 0.00119887 1.06542 12.7596 0.128265 -1.80186 25.8201 5.98361 -5.36547 -4.15161 -0.0529989 8.09292e-012 -2.79253e-012 -2.45698e-012 
32.2381 103.881 -132.201 -2.88464 0.268923 6.1135 2.56598 -15.7909 -0.71449 7.06909 21.0824 0.251024 -0.180383 -7.83697 -0.175842 0.0644975 -0.273701 0.793524 0.58006 2.83846 -0.435717 -0.588496 -7.93659 -0.245675 4.14093 2.55965 -1.4435 1.98785e-016 0 2.38542e-015 -84.9326 -26.4918 -2.88372 -24.7098 10.9651 4.21552 0.368473 9.90896 -0.00117927 3.82463 0.136607 -2.34805 77.8938 -30.1301 -8.32369 21.1125 13.6783 8.70168 -0.369625 9.91382 0.00119887 1.17253 12.2536 0.609507 -1.87758 26.9818 6.08501 -5.35503 -3.20359 -0.00966098 0.11117 1.38129 -0.769053 
32.1013 103.887 -131.055 -2.82863 0.487381 6.09923 2.60168 -15.508 -0.509231 7.25363 21.5194 0.196797 -0.290832 -8.63233 -0.184134 0.0713349 -0.508031 0.822612 0.618602 2.79007 -0.458648 -0.640024 -8.02786 -0.254771 4.09479 2.51499 -1.44904 4.47266e-016 -7.95139e-016 -1.59028e-015 -84.7852 -26.3512 -2.91988 -24.8714 10.9756 4.0727 0.368473 9.90896 -0.00117927 3.86767 0.134736 -2.36742 77.845 -29.7949 -8.00077 21.2655 13.8158 9.46568 -0.369625 9.91382 0.00119887 1.37225 11.695 1.04179 -1.97517 28.2544 6.25512 -5.36126 -2.16815 0.0381363 0.268272 2.76304 -1.68494 
31.9615 103.897 -129.906 -2.90151 0.574148 6.1772 2.75024 -14.9474 -0.430413 7.42542 21.7052 0.334328 -0.428441 -9.41442 -0.195145 0.0405604 -0.573267 0.563107 0.685139 2.73832 -0.440693 -0.509887 -7.96617 -0.240851 4.02907 2.47329 -1.54586 -7.95139e-016 7.95139e-016 -7.95139e-016 -84.7141 -25.9394 -2.98832 -25.0908 11.0479 3.61665 0.368473 9.90896 -0.00117927 3.93653 0.125661 -2.44826 77.6879 -29.2808 -7.66055 21.5391 13.9622 10.2724 -0.369625 9.91382 0.00119887 1.81772 11.0667 1.37659 -2.1348 29.7497 6.61218 -5.43462 -0.895192 0.0988505 0.519994 4.04562 -3.07286 
31.8192 103.897 -128.784 -3.0427 0.632383 6.30811 2.99457 -14.3338 -0.352181 7.5692 21.7926 0.487669 -0.614623 -10.1172 -0.210686 -0.00537665 -0.697452 0.168069 0.776465 2.70262 -0.410463 -0.310673 -7.87459 -0.21904 3.97294 2.44026 -1.71416 0 7.95139e-016 -0 -84.7175 -25.4389 -3.08065 -25.3037 11.1733 2.93638 0.368473 9.90896 -0.00117927 3.95415 0.10976 -2.58395 77.5784 -28.6451 -7.24542 21.8608 14.0971 11.0181 -0.369625 9.91382 0.00119887 2.3815 10.2131 1.5723 -2.35474 31.5713 7.08919 -5.48814 0.514677 0.165412 0.826915 5.52236 -4.54972 
31.6768 103.872 -127.721 -3.22943 0.746151 6.46752 3.36343 -13.8444 -0.182268 7.65128 21.874 0.533866 -0.914605 -10.6318 -0.235649 -0.0613515 -1.14447 -0.317655 0.902963 2.71332 -0.384482 -0.0953979 -7.86625 -0.197633 3.943 2.43489 -1.96237 -4.47266e-016 0 7.95139e-016 -84.8453 -24.9849 -3.21404 -25.4385 11.3416 2.11988 0.368473 9.90896 -0.00117927 3.79148 0.0834857 -2.79827 77.6835 -27.8835 -6.69147 22.1957 14.2015 11.589 -0.369625 9.91382 0.00119887 2.99752 8.94675 1.54118 -2.68018 33.876 7.72966 -5.43338 2.02526 0.235042 1.16704 7.52593 -5.90965 
31.5261 103.825 -126.706 -3.43168 0.882617 6.66944 3.77816 -13.4309 0.0880554 7.72636 21.9658 0.447014 -1.20931 -11.0889 -0.262027 -0.117614 -1.67752 -0.7565 1.03997 2.73286 -0.371536 0.0774824 -7.86605 -0.18174 3.9622 2.41803 -2.26083 2.20695e-032 -7.95139e-016 1.59028e-015 -84.9869 -24.5392 -3.33172 -25.5514 11.5919 0.976919 0.368473 9.90896 -0.00117927 3.62989 0.0544528 -3.03609 77.8694 -27.0648 -6.02254 22.5203 14.2874 12.053 -0.369625 9.91382 0.00119887 3.61204 7.34485 1.37821 -3.04566 36.6138 8.36055 -5.32301 3.59344 0.303666 1.52471 9.84099 -6.96375 
31.3531 103.753 -125.741 -3.60958 1.03881 6.93226 4.18115 -13.1139 0.568111 7.83713 22.121 0.0761017 -1.3544 -11.5951 -0.280166 -0.140178 -2.13515 -0.919572 1.16755 2.72566 -0.395255 0.100603 -7.82552 -0.182899 4.08652 2.34462 -2.59638 4.96962e-017 7.95139e-016 -7.95139e-016 -85.0338 -24.1006 -3.39955 -25.6554 11.9585 -0.689073 0.368473 9.90896 -0.00117927 3.65428 0.0286748 -3.2563 78.0499 -26.259 -5.22414 22.7928 14.3605 12.445 -0.369625 9.91382 0.00119887 4.15667 5.40201 1.19487 -3.31146 39.8738 8.68706 -5.19471 5.12038 0.366309 1.79682 12.4766 -7.43635 
31.177 103.66 -124.822 -3.77047 1.20909 7.21845 4.53811 -12.8626 1.04844 7.99012 22.3192 -0.328107 -1.49045 -12.1145 -0.299878 -0.156103 -2.55572 -1.03522 1.28206 2.71618 -0.427641 0.0675311 -7.77783 -0.190129 4.23077 2.25151 -2.92795 -4.96962e-016 0 7.95139e-016 -85.0373 -23.693 -3.37001 -25.7672 12.4266 -2.77966 0.368473 9.90896 -0.00117927 3.7256 0.00737961 -3.44067 78.259 -25.459 -4.33939 23.0297 14.4179 12.7501 -0.369625 9.91382 0.00119887 4.61072 3.17785 0.850836 -3.569 43.4251 9.03802 -5.00133 6.73708 0.422755 1.94689 15.1372 -7.34008 
31.0105 103.557 -123.95 -3.90499 1.39183 7.49125 4.77961 -12.651 1.30404 8.21468 22.5508 -0.499872 -1.74972 -12.6478 -0.330987 -0.190812 -2.8921 -1.27524 1.35754 2.71628 -0.44212 0.0381783 -7.75219 -0.195588 4.33282 2.17384 -3.20336 -9.44227e-016 -3.97569e-016 -1.59028e-015 -85.0014 -23.3265 -3.14593 -25.9155 13.0002 -5.32409 0.368473 9.90896 -0.00117927 3.78589 -0.00636996 -3.55794 78.5115 -24.7054 -3.37556 23.2167 14.4475 12.9094 -0.369625 9.91382 0.00119887 4.89816 0.701672 0.26454 -3.89294 47.0767 9.75624 -4.667 8.707 0.473474 1.99251 17.5933 -6.95045 
30.8588 103.435 -123.118 -4.02143 1.57231 7.76668 4.96691 -12.4891 1.49382 8.4738 22.8419 -0.630958 -2.014 -13.1921 -0.364031 -0.235915 -3.23868 -1.58091 1.44098 2.72824 -0.458045 0.00608858 -7.71197 -0.201406 4.38266 2.07168 -3.44289 -6.4605e-016 -3.97569e-016 -7.95139e-016 -84.9655 -23.0389 -2.84428 -26.0504 13.6379 -8.14337 0.368473 9.90896 -0.00117927 3.77708 -0.0120854 -3.60617 78.7956 -23.9303 -2.41776 23.4034 14.4829 13.0895 -0.369625 9.91382 0.00119887 5.02679 -1.94126 -0.632869 -4.51021 50.7595 10.6967 -4.31605 10.5339 0.51181 1.57264 19.6452 -5.11739 
30.7362 103.286 -122.316 -4.11783 1.7347 8.04257 5.13699 -12.3954 1.71623 8.73149 23.2487 -0.815941 -2.18445 -13.7573 -0.390761 -0.30324 -3.70321 -2.02335 1.5822 2.76519 -0.487158 -0.00437772 -7.62504 -0.206223 4.29687 1.88856 -3.64267 -3.97569e-016 -1.19271e-015 -0 -84.9615 -22.8853 -2.52356 -26.1687 14.3283 -11.1372 0.368473 9.90896 -0.00117927 3.57161 -0.00705425 -3.56402 79.1157 -23.0406 -1.58644 23.6607 14.5674 13.5115 -0.369625 9.91382 0.00119887 4.93489 -4.67632 -2.05484 -5.717 54.3836 11.6932 -4.07654 12.0561 0.53859 -0.00809814 21.257 0.356367 
30.6274 103.125 -121.546 -4.21442 1.88087 8.33666 5.28626 -12.3161 1.92607 9.02359 23.668 -1.08439 -2.33417 -14.3058 -0.41713 -0.36455 -4.198 -2.38549 1.74679 2.80646 -0.525712 -0.0257158 -7.50708 -0.212668 4.23175 1.70928 -3.8229 4.96962e-016 -3.97569e-016 3.18055e-015 -84.9997 -22.8265 -2.25556 -26.2022 15.0007 -14.0914 0.368473 9.90896 -0.00117927 3.31974 0.0051293 -3.45847 79.4452 -22.1632 -0.780372 23.9046 14.6563 13.9543 -0.369625 9.91382 0.00119887 4.66839 -7.42733 -3.67692 -7.257 57.835 13.0669 -3.8535 12.5332 0.52842 -1.86542 21.2975 6.13722 
30.523 102.965 -120.812 -4.3483 2.00084 8.68923 5.42218 -12.1941 2.18829 9.44651 23.9796 -1.65637 -2.51471 -14.7962 -0.447916 -0.369311 -4.65899 -2.36715 1.92234 2.83965 -0.578041 -0.0872503 -7.34462 -0.223302 4.35719 1.61227 -4.00204 4.47266e-016 0 -0 -85.1334 -22.8449 -2.1852 -26.0743 15.5957 -16.7008 0.368473 9.90896 -0.00117927 3.157 0.0166924 -3.3576 79.761 -21.3785 0.0981031 24.0784 14.7155 14.2398 -0.369625 9.91382 0.00119887 4.36586 -10.0873 -5.24305 -9.1604 61.0148 15.3871 -3.58597 10.6771 0.438178 -2.48975 18.3458 8.69675 
